<?xml version="1.0" standalone="no"?>
<!DOCTYPE svg PUBLIC "-//W3C//DTD SVG 20010904//EN"
 "http://www.w3.org/TR/2001/REC-SVG-20010904/DTD/svg10.dtd">
<svg version="1.0" xmlns="http://www.w3.org/2000/svg"
 width="400.000000pt" height="400.000000pt" viewBox="0 0 500.000000 500.000000"
 preserveAspectRatio="xMidYMid meet">

<g transform="translate(0.000000,500.000000) scale(0.100000,-0.100000)"
fill="#000000" stroke="none">
<path d="M2625 3821 c-33 -16 -258 -119 -500 -230 -241 -111 -444 -206 -449
-211 -12 -12 83 -220 101 -220 7 0 39 13 71 29 31 15 67 32 80 35 l22 7 0
-760 0 -761 -170 0 -170 0 0 190 0 190 23 0 c36 1 103 36 150 79 202 186 48
531 -227 509 -232 -19 -353 -277 -220 -469 34 -50 104 -98 164 -112 l50 -12 0
-187 0 -188 -160 0 -160 0 0 -25 0 -25 1275 0 1275 0 0 25 0 25 -165 0 -165 0
0 190 0 190 23 0 c31 1 102 34 148 71 23 18 51 55 70 94 28 58 31 71 27 137
-5 91 -34 154 -99 212 -146 131 -374 83 -463 -96 -29 -58 -35 -157 -14 -219
31 -91 116 -170 208 -192 l50 -12 0 -187 0 -188 -175 0 -175 0 0 775 c0 426 2
775 5 775 3 0 34 -22 69 -50 l64 -50 73 95 c41 53 75 99 76 103 3 11 -614 487
-634 489 -10 1 -45 -11 -78 -26z m114 -58 c20 -15 147 -114 284 -221 l247
-193 -42 -54 c-24 -30 -46 -54 -50 -54 -4 -1 -110 80 -237 178 -126 99 -238
185 -248 191 -16 10 -87 -19 -458 -188 l-440 -201 -32 66 c-18 37 -32 68 -30
69 6 6 953 434 961 434 5 0 25 -12 45 -27z m99 -329 l162 -127 0 -378 0 -379
-170 0 -170 0 0 -25 c0 -24 3 -25 55 -25 l55 0 0 -70 0 -70 -55 0 c-37 0 -70
7 -97 21 -91 46 -218 31 -297 -38 -22 -18 -52 -59 -68 -91 l-28 -57 -3 -242
-3 -243 -110 0 -109 0 0 545 0 545 230 0 230 0 0 25 c0 24 -1 24 -97 27 l-98
3 -3 68 -3 67 101 0 c100 0 100 0 100 25 l0 25 -227 2 -228 3 0 109 0 108 325
148 c179 82 330 149 335 149 6 1 83 -56 173 -125z m-628 -514 l0 -71 -102 3
-103 3 -3 68 -3 67 106 0 105 0 0 -70z m-660 -386 l0 -86 -22 14 c-13 9 -47
30 -76 48 -52 32 -53 33 -35 53 20 22 89 56 116 57 15 0 17 -11 17 -86z m136
66 c23 -11 49 -29 58 -39 15 -17 12 -20 -59 -64 l-75 -47 0 85 c0 97 3 100 76
65z m1714 -66 l0 -86 -47 28 c-27 15 -63 37 -81 50 l-33 22 33 25 c39 30 74
45 106 46 21 1 22 -2 22 -85z m117 75 c15 -6 43 -22 61 -36 l34 -25 -60 -38
c-112 -71 -102 -73 -102 25 0 94 4 98 67 74z m-2054 -169 l87 -55 0 -52 0 -52
-105 66 c-71 44 -105 71 -105 84 0 22 21 71 30 67 3 -2 45 -28 93 -58z m346
29 c6 -18 11 -37 11 -44 0 -10 -190 -135 -205 -135 -3 0 -5 22 -5 48 l0 49 88
56 c48 31 90 56 94 56 3 1 11 -13 17 -30z m1191 -39 l0 -70 -85 0 -85 0 0 70
0 70 85 0 85 0 0 -70z m343 -12 c57 -39 57 -39 57 -90 0 -50 0 -50 -22 -36
-13 8 -62 39 -110 69 -49 30 -88 58 -88 62 0 4 7 24 15 43 l15 36 37 -23 c21
-12 64 -40 96 -61z m317 36 c7 -19 10 -37 8 -38 -1 -2 -41 -27 -88 -56 -47
-29 -95 -60 -107 -68 -23 -14 -23 -14 -23 37 l0 52 92 59 c50 33 95 57 99 54
4 -2 13 -20 19 -40z m-1026 -142 c23 -15 51 -48 65 -77 25 -48 26 -55 29 -287
l3 -238 -100 0 -101 0 0 103 0 103 31 23 c68 51 69 143 2 186 l-32 20 -1 107
0 107 33 -10 c17 -5 50 -21 71 -37z m-1084 -134 c0 -43 -10 -47 -64 -24 -48
20 -107 75 -127 121 -36 78 -27 79 86 8 103 -66 105 -67 105 -105z m247 99
c-26 -57 -67 -96 -130 -122 -52 -22 -57 -20 -57 24 0 38 1 40 103 104 56 36
103 62 105 57 2 -6 -7 -34 -21 -63z m673 -31 c0 -95 -2 -105 -20 -111 -35 -11
-60 -54 -60 -103 0 -39 5 -50 38 -82 39 -36 39 -36 46 -138 l7 -102 -101 0
-100 0 0 238 c0 209 3 242 19 277 28 60 106 124 154 125 15 0 17 -11 17 -104z
m843 24 c84 -53 87 -56 87 -92 0 -45 -18 -49 -79 -18 -69 35 -111 86 -136 168
-6 22 -6 23 17 10 14 -7 64 -38 111 -68z m341 28 c-25 -74 -123 -158 -184
-158 -17 0 -20 6 -20 38 0 36 2 38 107 104 59 37 108 66 110 65 2 -2 -4 -24
-13 -49z m-654 -293 l0 -295 -109 0 -109 0 -4 248 c-3 247 -3 247 -30 295
l-27 47 140 0 139 0 0 -295z m-452 72 c17 -14 15 -67 -5 -89 -21 -24 -58 -23
-83 2 -57 57 23 137 88 87z"/>
</g>
</svg>
